# xmcd
#
# Track frame offsets: 
#        150
#        13647
#        28074
#        41147
#        54486
#        67706
#        80227
#        91145
#        101414
#        115813
#        130743
#        153827
#        167632
#        179885
#        192822
#        202010
#        212314
#        227539
#        249186
#        259708
#        270256
#        282362
#        292592
#
# Disc length: 4047 seconds
#
# Revision: 0
# Processed by: cddbd v1.5.1PL0 Copyright (c) Steve Scherf et al.
# Submitted via: ExactAudioCopy v0.95a5
#
DISCID=2f0fcd17
DTITLE=Earl Gaines - Lovin' Blues:  The Stairday King Years 1967-1973
DYEAR=1900
DGENRE=Blues
TTITLE0=My Woman
TTITLE1=The Things I Used To Do
TTITLE2=Three Wishes For A Fool
TTITLE3=Fruit From Another Man's Tree
TTITLE4=From Warm To Cool To Cold
TTITLE5=It's Love Baby (24 Hours A Day)
TTITLE6=My Pillow Stays Wet
TTITLE7=The Door Is Still Open
TTITLE8=The Meaning Of A Sad Song (Medley)
TTITLE9=Don't Deceive Me (Please Don't Go)
TTITLE10=Everyday I Have The Blues
TTITLE11=Have Faith (In Me)
TTITLE12=Tell Me Tonight
TTITLE13=You Belong To Me
TTITLE14=Good Good Lovin'
TTITLE15=Let's Go, Let's Go, Let's Go (Thrill On The Hill)
TTITLE16=What In The World Can I Call My Own
TTITLE17=Don't Deceive Me (Please Don't Go) *Overdubbed Version
TTITLE18=I'm The One You Need
TTITLE19=House Full Of Rooms
TTITLE20=Sixty Minute Man
TTITLE21=Little Boy Blue
TTITLE22=Finger Lickin' (Instrumental)
EXTD=
EXTT0=
EXTT1=
EXTT2=
EXTT3=
EXTT4=
EXTT5=
EXTT6=
EXTT7=
EXTT8=
EXTT9=
EXTT10=
EXTT11=
EXTT12=
EXTT13=
EXTT14=
EXTT15=
EXTT16=
EXTT17=
EXTT18=
EXTT19=
EXTT20=
EXTT21=
EXTT22=
PLAYORDER=
